<mxfile host="app.diagrams.net" modified="2022-05-20T06:19:14.063Z" agent="5.0 (Windows NT 10.0; Win64; x64) AppleWebKit/537.36 (KHTML, like Gecko) Chrome/101.0.4951.67 Safari/537.36" etag="Z8PgQmZiQ18U_oekX5y_" version="18.0.8" type="github">
  <diagram name="Page-1" id="97916047-d0de-89f5-080d-49f4d83e522f">
    <mxGraphModel dx="1710" dy="885" grid="1" gridSize="10" guides="1" tooltips="1" connect="1" arrows="1" fold="1" page="1" pageScale="1.5" pageWidth="1169" pageHeight="827" background="none" math="0" shadow="0">
      <root>
        <mxCell id="0" />
        <mxCell id="1" parent="0" />
        <mxCell id="2" value="BIENVENIDA" style="rounded=1;fillColor=#647687;strokeColor=#314354;shadow=1;fontStyle=1;fontColor=#ffffff;fontSize=14;" parent="1" vertex="1">
          <mxGeometry x="672" y="100" width="200" height="60" as="geometry" />
        </mxCell>
        <mxCell id="6ZszgOinPUObIP3RH873-58" style="edgeStyle=orthogonalEdgeStyle;rounded=0;orthogonalLoop=1;jettySize=auto;html=1;strokeWidth=3;fillColor=#647687;strokeColor=#314354;" edge="1" parent="1" source="3" target="6ZszgOinPUObIP3RH873-57">
          <mxGeometry relative="1" as="geometry" />
        </mxCell>
        <mxCell id="3" value="MENU PRINCIPAL" style="rounded=1;fillColor=#647687;strokeColor=#314354;shadow=1;fontStyle=1;fontColor=#ffffff;fontSize=14;strokeWidth=3;" parent="1" vertex="1">
          <mxGeometry x="662" y="345.5" width="220" height="60" as="geometry" />
        </mxCell>
        <mxCell id="6ZszgOinPUObIP3RH873-63" style="edgeStyle=orthogonalEdgeStyle;rounded=0;orthogonalLoop=1;jettySize=auto;html=1;strokeWidth=3;fillColor=#647687;strokeColor=#314354;" edge="1" parent="1" source="4" target="8">
          <mxGeometry relative="1" as="geometry" />
        </mxCell>
        <mxCell id="4" value="ADMINISTRACION" style="rounded=1;fillColor=#647687;strokeColor=#314354;shadow=1;fontStyle=1;fontColor=#ffffff;fontSize=14;strokeWidth=3;" parent="1" vertex="1">
          <mxGeometry x="302" y="455.5" width="200" height="60" as="geometry" />
        </mxCell>
        <mxCell id="6ZszgOinPUObIP3RH873-62" style="edgeStyle=orthogonalEdgeStyle;rounded=0;orthogonalLoop=1;jettySize=auto;html=1;strokeWidth=3;fillColor=#647687;strokeColor=#314354;" edge="1" parent="1" source="5" target="13">
          <mxGeometry relative="1" as="geometry" />
        </mxCell>
        <mxCell id="5" value="EJERCICIO" style="rounded=1;fillColor=#647687;strokeColor=#314354;shadow=1;fontStyle=1;fontColor=#ffffff;fontSize=14;strokeWidth=3;" parent="1" vertex="1">
          <mxGeometry x="542" y="455.5" width="200" height="60" as="geometry" />
        </mxCell>
        <mxCell id="6ZszgOinPUObIP3RH873-61" style="edgeStyle=orthogonalEdgeStyle;rounded=0;orthogonalLoop=1;jettySize=auto;html=1;entryX=0.5;entryY=0;entryDx=0;entryDy=0;strokeWidth=3;fillColor=#647687;strokeColor=#314354;" edge="1" parent="1" source="6" target="23">
          <mxGeometry relative="1" as="geometry" />
        </mxCell>
        <mxCell id="6" value="EJERCICIO ACTIVO" style="rounded=1;fillColor=#647687;strokeColor=#314354;shadow=1;fontStyle=1;fontColor=#ffffff;fontSize=14;strokeWidth=3;" parent="1" vertex="1">
          <mxGeometry x="1160" y="455.5" width="200" height="60" as="geometry" />
        </mxCell>
        <mxCell id="8" value="VENTANA DE CATALOGO" style="rounded=1;fillColor=#647687;strokeColor=#314354;shadow=1;fontStyle=1;fontColor=#ffffff;fontSize=14;strokeWidth=3;" parent="1" vertex="1">
          <mxGeometry x="302" y="565.5" width="200" height="60" as="geometry" />
        </mxCell>
        <mxCell id="9" value="CONFIGURACION DE COLORES" style="rounded=1;fillColor=#647687;strokeColor=#314354;shadow=1;fontStyle=1;fontColor=#ffffff;fontSize=14;strokeWidth=3;" parent="1" vertex="1">
          <mxGeometry x="302" y="645.5" width="200" height="60" as="geometry" />
        </mxCell>
        <mxCell id="13" value="CONFIGURACION" style="rounded=1;fillColor=#647687;strokeColor=#314354;shadow=1;fontStyle=1;fontColor=#ffffff;fontSize=14;strokeWidth=3;" parent="1" vertex="1">
          <mxGeometry x="552" y="615.5" width="200" height="60" as="geometry" />
        </mxCell>
        <mxCell id="14" value="EJERCICIO" style="rounded=1;fillColor=#647687;strokeColor=#314354;shadow=1;fontStyle=1;fontColor=#ffffff;fontSize=14;strokeWidth=3;" parent="1" vertex="1">
          <mxGeometry x="552" y="705.5" width="200" height="60" as="geometry" />
        </mxCell>
        <mxCell id="15" value="SALAS" style="rounded=1;fillColor=#647687;strokeColor=#314354;shadow=1;fontStyle=1;fontColor=#ffffff;fontSize=14;strokeWidth=3;" parent="1" vertex="1">
          <mxGeometry x="552" y="795.5" width="200" height="60" as="geometry" />
        </mxCell>
        <mxCell id="6ZszgOinPUObIP3RH873-60" style="edgeStyle=orthogonalEdgeStyle;rounded=0;orthogonalLoop=1;jettySize=auto;html=1;strokeWidth=3;fillColor=#647687;strokeColor=#314354;" edge="1" parent="1" source="16" target="6ZszgOinPUObIP3RH873-59">
          <mxGeometry relative="1" as="geometry" />
        </mxCell>
        <mxCell id="16" value="ROLES" style="rounded=1;fillColor=#647687;strokeColor=#314354;shadow=1;fontStyle=1;fontColor=#ffffff;fontSize=14;strokeWidth=3;" parent="1" vertex="1">
          <mxGeometry x="552" y="885.5" width="200" height="60" as="geometry" />
        </mxCell>
        <mxCell id="23" value="AYUDA" style="rounded=1;fillColor=#647687;strokeColor=#314354;shadow=1;fontStyle=1;fontColor=#ffffff;fontSize=14;strokeWidth=3;" parent="1" vertex="1">
          <mxGeometry x="1160" y="590" width="200" height="60" as="geometry" />
        </mxCell>
        <mxCell id="29" value="" style="edgeStyle=elbowEdgeStyle;elbow=vertical;strokeWidth=4;endArrow=block;endFill=1;fontStyle=1;strokeColor=#314354;startArrow=none;fillColor=#647687;" parent="1" source="6ZszgOinPUObIP3RH873-55" target="3" edge="1">
          <mxGeometry x="22" y="165.5" width="100" height="100" as="geometry">
            <mxPoint x="22" y="265.5" as="sourcePoint" />
            <mxPoint x="122" y="165.5" as="targetPoint" />
          </mxGeometry>
        </mxCell>
        <mxCell id="30" value="" style="edgeStyle=elbowEdgeStyle;elbow=vertical;strokeWidth=3;endArrow=block;endFill=1;fontStyle=1;strokeColor=#314354;fillColor=#647687;" parent="1" source="3" target="5" edge="1">
          <mxGeometry x="22" y="165.5" width="100" height="100" as="geometry">
            <mxPoint x="22" y="265.5" as="sourcePoint" />
            <mxPoint x="122" y="165.5" as="targetPoint" />
          </mxGeometry>
        </mxCell>
        <mxCell id="31" value="" style="edgeStyle=elbowEdgeStyle;elbow=vertical;strokeWidth=3;endArrow=block;endFill=1;fontStyle=1;strokeColor=#314354;fillColor=#647687;" parent="1" source="3" target="4" edge="1">
          <mxGeometry x="22" y="165.5" width="100" height="100" as="geometry">
            <mxPoint x="22" y="265.5" as="sourcePoint" />
            <mxPoint x="122" y="165.5" as="targetPoint" />
          </mxGeometry>
        </mxCell>
        <mxCell id="32" value="" style="edgeStyle=elbowEdgeStyle;elbow=vertical;strokeWidth=3;endArrow=block;endFill=1;fontStyle=1;strokeColor=#314354;fillColor=#647687;" parent="1" source="3" target="6" edge="1">
          <mxGeometry x="22" y="165.5" width="100" height="100" as="geometry">
            <mxPoint x="22" y="265.5" as="sourcePoint" />
            <mxPoint x="122" y="165.5" as="targetPoint" />
          </mxGeometry>
        </mxCell>
        <mxCell id="38" value="" style="edgeStyle=elbowEdgeStyle;elbow=vertical;strokeWidth=3;endArrow=block;endFill=1;fontStyle=1;strokeColor=#314354;fillColor=#647687;" parent="1" source="8" target="9" edge="1">
          <mxGeometry x="82" y="105.5" width="100" height="100" as="geometry">
            <mxPoint x="82" y="205.5" as="sourcePoint" />
            <mxPoint x="182" y="105.5" as="targetPoint" />
          </mxGeometry>
        </mxCell>
        <mxCell id="42" value="" style="edgeStyle=elbowEdgeStyle;elbow=vertical;strokeWidth=3;endArrow=block;endFill=1;fontStyle=1;strokeColor=#314354;fillColor=#647687;" parent="1" source="13" target="14" edge="1">
          <mxGeometry x="62" y="165.5" width="100" height="100" as="geometry">
            <mxPoint x="62" y="265.5" as="sourcePoint" />
            <mxPoint x="162" y="165.5" as="targetPoint" />
          </mxGeometry>
        </mxCell>
        <mxCell id="43" value="" style="edgeStyle=elbowEdgeStyle;elbow=vertical;strokeWidth=3;endArrow=block;endFill=1;fontStyle=1;strokeColor=#314354;fillColor=#647687;" parent="1" source="14" target="15" edge="1">
          <mxGeometry x="62" y="175.5" width="100" height="100" as="geometry">
            <mxPoint x="62" y="275.5" as="sourcePoint" />
            <mxPoint x="162" y="175.5" as="targetPoint" />
          </mxGeometry>
        </mxCell>
        <mxCell id="44" value="" style="edgeStyle=elbowEdgeStyle;elbow=vertical;strokeWidth=3;endArrow=block;endFill=1;fontStyle=1;strokeColor=#314354;fillColor=#647687;" parent="1" source="15" target="16" edge="1">
          <mxGeometry x="62" y="185.5" width="100" height="100" as="geometry">
            <mxPoint x="62" y="285.5" as="sourcePoint" />
            <mxPoint x="162" y="185.5" as="targetPoint" />
          </mxGeometry>
        </mxCell>
        <mxCell id="6ZszgOinPUObIP3RH873-55" value="LOGIN" style="rounded=1;fillColor=#647687;strokeColor=#314354;shadow=1;fontStyle=1;fontColor=#ffffff;fontSize=14;" vertex="1" parent="1">
          <mxGeometry x="672" y="210" width="200" height="60" as="geometry" />
        </mxCell>
        <mxCell id="6ZszgOinPUObIP3RH873-56" value="" style="edgeStyle=elbowEdgeStyle;elbow=vertical;strokeWidth=4;endArrow=none;endFill=1;fontStyle=1;strokeColor=#314354;fillColor=#647687;" edge="1" parent="1" source="2" target="6ZszgOinPUObIP3RH873-55">
          <mxGeometry x="22" y="165.5" width="100" height="100" as="geometry">
            <mxPoint x="772" y="160" as="sourcePoint" />
            <mxPoint x="772" y="345.5" as="targetPoint" />
          </mxGeometry>
        </mxCell>
        <mxCell id="6ZszgOinPUObIP3RH873-57" value="LINEA DEL TIEMPO" style="rounded=1;fillColor=#647687;strokeColor=#314354;shadow=1;fontStyle=1;fontColor=#ffffff;fontSize=14;strokeWidth=3;" vertex="1" parent="1">
          <mxGeometry x="790" y="455.5" width="200" height="60" as="geometry" />
        </mxCell>
        <mxCell id="6ZszgOinPUObIP3RH873-59" value="ESCENARIO" style="rounded=1;fillColor=#647687;strokeColor=#314354;shadow=1;fontStyle=1;fontColor=#ffffff;fontSize=14;strokeWidth=3;" vertex="1" parent="1">
          <mxGeometry x="552" y="975.5" width="200" height="60" as="geometry" />
        </mxCell>
      </root>
    </mxGraphModel>
  </diagram>
</mxfile>
